<svg width="24" height="24" viewBox="0 0 24 24" fill="none" xmlns="http://www.w3.org/2000/svg">
<rect x="0.5" y="0.5" width="23" height="23" rx="11.5" fill="#D32424"/>
<g clip-path="url(#clip0_2562_130722)">
<path d="M16.5 14.6923V11.1026C16.5 8.89846 15.27 7.05333 13.125 6.56513V6.07692C13.125 5.48103 12.6225 5 12 5C11.3775 5 10.875 5.48103 10.875 6.07692V6.56513C8.7225 7.05333 7.5 8.89128 7.5 11.1026V14.6923L6 16.1282V16.8462H18V16.1282L16.5 14.6923ZM12.75 14.6923H11.25V13.2564H12.75V14.6923ZM12.75 11.8205H11.25V8.94872H12.75V11.8205ZM12 19C12.825 19 13.5 18.3538 13.5 17.5641H10.5C10.5 18.3538 11.1675 19 12 19Z" fill="white"/>
</g>
<path d="M16.5996 11.4531C14.9425 11.4531 13.5977 10.1083 13.5977 8.45117C13.5977 6.79409 14.9425 5.44922 16.5996 5.44922C18.2567 5.44922 19.6016 6.79409 19.6016 8.45117C19.6016 10.1083 18.2567 11.4531 16.5996 11.4531Z" fill="#F9D041"/>
<rect x="0.5" y="0.5" width="23" height="23" rx="11.5" stroke="white"/>
<defs>
<clipPath id="clip0_2562_130722">
<rect width="16" height="16" fill="white" transform="translate(4 4)"/>
</clipPath>
</defs>
</svg>
